# xmcd CD database file
#
# Track frame offsets:
#	150
#	14168
#	33224
#	51188
#	68181
#	90650
#	106943
#	128773
#	145017
#	166588
#	184965
#	204877
#
# Disc length: 3011 seconds
#
# Revision: 1
# Processed by: cddbd v1.4PL0 Copyright (c) Steve Scherf et al.
# Submitted via: CDex 1.40Beta9
#
DISCID=9b0bc10c
DTITLE=Karen O'Shea - Just A Little Bit More
DYEAR=2002
DGENRE=Country
TTITLE0=Just A  little Bit More
TTITLE1=That's A Lie
TTITLE2=Swept Away
TTITLE3=Prayers For You
TTITLE4=Hold Me (Like A Lover)
TTITLE5=My Love Goes That Far
TTITLE6=Wish
TTITLE7=She Broke Your Heart
TTITLE8=You'll Never Know
TTITLE9=Chance You Take For Love
TTITLE10=Tell Me Again
TTITLE11=Roll Of The Dice
EXTD=YEAR: 2002 ID3G: 2
EXTT0=
EXTT1=
EXTT2=
EXTT3=
EXTT4=
EXTT5=
EXTT6=
EXTT7=
EXTT8=
EXTT9=
EXTT10=
EXTT11=
PLAYORDER=
